<svg width="1077" height="1061" viewBox="0 0 1077 1061" fill="none" xmlns="http://www.w3.org/2000/svg">
<mask id="mask0_341_1641" style="mask-type:luminance" maskUnits="userSpaceOnUse" x="0" y="220" width="391" height="628">
<path d="M65.8859 223.619C60.6044 224.622 55.8031 226.628 50.8416 228.3C43.1594 230.807 37.2377 236.491 30.8359 241.004C22.0334 247.189 16.5918 256.383 10.8302 265.076C6.02878 272.598 3.78813 281.625 1.86758 290.652C-1.97352 308.873 0.267123 326.091 7.1491 342.807C12.2706 354.843 19.7927 364.872 29.7156 373.398C44.1197 385.768 59.9643 392.622 78.5296 393.625C93.0938 394.293 106.698 391.786 119.661 384.765C122.382 383.26 124.463 383.762 126.703 386.102C135.186 395.296 143.828 404.156 152.471 413.183C162.234 423.213 171.996 433.075 181.759 443.272C197.604 459.821 213.128 476.705 228.813 493.421C232.494 497.266 232.814 499.439 230.733 504.12C228.973 507.965 227.052 512.144 226.412 516.323C224.331 533.875 222.891 551.427 231.053 567.976C231.533 569.147 230.893 571.654 229.773 572.657C222.731 580.012 215.369 587.033 208.327 594.221C199.684 603.081 191.202 612.108 182.719 620.967C174.877 628.991 167.035 636.848 159.193 644.872C148.47 655.904 137.747 666.77 127.184 677.97C123.022 682.316 119.341 686.161 113.58 680.979C113.099 680.645 112.299 680.979 111.659 680.645C106.698 679.475 101.736 678.472 96.9348 676.967C83.9711 672.621 71.3275 675.63 58.8439 678.806C48.2809 681.648 38.9982 687.833 30.3558 695.021C22.0334 701.874 16.2717 710.4 10.6701 719.26C6.02878 726.615 3.78813 735.307 2.02763 744.167C-2.45366 765.397 0.907307 785.122 10.8302 803.677C15.7916 812.704 22.5135 820.394 30.1957 827.582C41.0788 837.779 54.0426 843.462 67.3264 846.137C79.8099 848.644 93.2538 848.811 106.057 843.964C119.021 839.116 130.544 832.931 140.627 823.068C153.111 810.865 160.633 795.653 163.994 778.937C167.195 762.722 166.875 745.839 159.513 729.958C157.592 725.779 156.152 721.433 154.551 717.086C160.153 711.236 165.595 705.552 171.036 699.869C182.239 688.334 193.443 676.8 204.646 665.433C213.768 656.239 222.891 647.045 232.014 637.684C240.656 628.657 249.139 619.63 257.941 610.603C261.462 606.926 261.462 607.427 266.103 609.6C273.626 613.278 281.148 617.123 288.99 619.296C297.312 621.469 306.115 622.305 314.917 621.134C326.121 619.797 336.203 615.952 346.126 610.937C363.091 602.579 374.294 588.37 382.617 571.487C388.699 559.117 391.099 545.744 390.299 531.869C389.979 526.687 389.179 521.338 387.898 516.156C386.138 509.302 384.857 501.947 381.496 496.096C374.935 484.896 367.893 473.529 357.009 466.007C349.647 460.992 342.285 455.977 333.803 453.302C309.316 445.78 285.949 448.12 263.703 461.493C250.579 447.618 237.455 433.911 224.331 420.204C202.565 397.302 180.799 374.401 159.033 351.499C156.472 348.825 155.992 346.986 157.912 343.141C160.793 336.789 163.354 329.935 164.314 323.082C166.235 308.873 166.395 294.329 161.433 280.622C159.353 274.938 156.952 269.255 154.071 263.906C147.669 252.037 138.227 243.01 127.504 234.986C114.86 225.792 100.776 222.95 86.2118 220.945C84.9314 220.945 83.491 220.777 82.2106 220.777C76.609 220.777 71.1675 222.115 65.7259 223.118" fill="white"/>
</mask>
<g mask="url(#mask0_341_1641)">
<path d="M-2.12142 212.402L-15.1836 848.648L391.082 857.623L404.144 221.377L-2.12142 212.402Z" fill="white"/>
</g>
<mask id="mask1_341_1641" style="mask-type:luminance" maskUnits="userSpaceOnUse" x="228" y="670" width="629" height="391">
<path d="M524.712 672.213C517.011 674.013 509.474 676.303 502.757 680.065C492.598 685.953 483.751 693.151 476.214 702.474C467.858 712.779 462.451 724.229 460.158 736.661C456.717 756.126 458.028 775.427 467.694 793.584C469.169 796.365 469.169 798.818 466.547 801.435C458.355 809.287 450.655 817.465 442.462 825.48C434.762 833.005 426.734 840.366 419.033 848.053C409.694 857.214 400.519 866.537 391.18 875.861C386.264 880.768 381.349 885.839 376.27 890.746C371.191 895.489 366.112 900.233 361.032 904.649C313.19 877.987 264.529 896.307 243.065 929.676C221.274 963.535 225.37 1004.59 250.766 1032.07C282.388 1065.93 324.987 1068.55 359.23 1047.12C394.784 1024.87 408.547 982.183 391.835 942.107C393.637 939.981 395.112 937.691 396.914 935.728C403.14 929.512 409.366 923.46 415.592 917.408C419.524 913.646 423.784 910.047 427.717 906.122C437.547 896.471 447.214 886.493 456.881 876.842C464.254 869.481 471.954 862.448 479.327 855.087C486.7 847.89 493.909 840.529 501.118 833.005C503.084 830.878 505.05 830.061 507.672 831.533C508.983 832.351 510.785 832.351 512.26 833.005C521.271 837.258 530.774 839.057 540.604 838.566C545.847 838.239 551.09 838.239 556.333 838.076C557.644 838.076 559.283 838.076 560.429 837.585C568.622 834.15 576.65 830.878 584.678 827.28C587.791 825.971 590.249 824.826 593.034 828.098C596.966 832.678 601.39 836.603 605.65 840.856C616.791 851.979 627.769 863.266 638.91 874.389C647.594 883.058 656.442 891.4 665.125 899.906C674.3 909.23 683.312 918.717 692.651 928.04C697.73 933.275 697.075 933.438 694.453 938.672C687.736 952.085 685.933 966.153 686.589 980.874C686.753 985.618 686.589 990.525 688.063 995.105C690.685 1004.1 693.798 1012.61 699.205 1020.62C709.854 1036.65 723.289 1048.76 741.804 1054.48C745.9 1055.79 749.996 1056.94 754.092 1057.92C769.329 1061.35 774.736 1060.7 785.058 1059.23C790.301 1058.41 795.217 1055.95 800.46 1054.48C808.652 1052.03 816.352 1048.27 822.742 1042.87C830.443 1036.16 838.307 1029.29 843.223 1019.97C849.121 1009.34 853.872 998.213 855.347 986.272C857.641 968.933 854.036 952.576 846.172 937.2C837.98 921.007 825.2 908.902 809.143 900.887C785.878 889.274 761.793 889.11 737.544 898.434C731.645 900.724 731.645 900.887 727.058 896.307C718.046 887.147 709.199 877.824 700.024 868.664C692.159 860.649 683.967 852.961 676.103 844.946C667.091 835.786 658.244 826.462 649.232 817.465C641.04 809.287 632.684 801.108 624.164 793.093C620.56 789.658 620.396 786.223 621.707 781.97C623.345 777.063 625.311 772.156 625.967 767.085C628.261 748.765 625.311 731.099 616.628 714.579C609.255 700.511 598.113 689.716 584.842 681.537C573.045 674.503 559.61 671.068 545.847 670.414C544.701 670.414 543.554 670.414 542.407 670.414C536.345 670.414 530.282 671.232 524.22 672.541" fill="white"/>
</mask>
<g mask="url(#mask1_341_1641)">
<path d="M221.787 656.399L212.969 1068.18L857.71 1081.83L866.529 670.053L221.787 656.399Z" fill="white"/>
</g>
<mask id="mask2_341_1641" style="mask-type:luminance" maskUnits="userSpaceOnUse" x="229" y="221" width="628" height="628">
<path d="M748.012 224.632C737.851 227.309 728.673 232.664 719.987 239.022C710.154 246.385 702.615 255.923 696.716 266.13C690.488 276.672 687.374 288.887 687.046 301.772C686.555 316.33 687.702 330.72 694.093 343.772C697.043 349.963 696.06 353.477 692.127 357.661C691.307 358.665 690.324 359.501 689.341 360.505C677.869 372.051 666.397 383.597 654.925 395.143C642.633 407.526 630.178 420.076 617.722 432.458C613.953 436.139 609.856 439.319 606.086 443C599.695 449.359 593.303 456.052 587.239 462.578C584.945 460.905 583.142 459.566 581.34 458.562C579.373 457.558 577.079 456.721 575.112 456.052C551.512 446.514 528.24 447.685 505.296 458.227C501.691 459.901 499.56 459.733 496.938 456.889C491.694 451.199 486.286 445.677 480.877 440.155C469.241 428.108 457.442 416.227 445.806 404.346C437.12 395.478 428.106 386.944 419.42 378.075C410.734 369.039 402.376 359.669 393.526 350.8C390.904 348.123 390.412 345.78 391.887 342.266C396.148 332.394 398.606 322.186 398.934 311.477C399.426 294.409 395.656 278.345 386.807 263.62C379.104 250.736 368.779 240.361 356.324 232.998C342.885 224.966 327.644 221.118 311.747 221.62C306.666 221.787 301.422 222.958 296.341 223.962C291.425 224.966 286.344 225.468 281.919 227.644C262.253 237.182 246.192 250.903 237.178 271.819C234.884 277.174 231.934 282.696 231.115 288.553C228.656 305.955 228.328 323.19 235.539 340.258C243.57 359.334 255.861 374.059 273.561 383.597C280.772 387.446 288.311 391.629 296.177 392.633C314.86 395.143 333.543 395.143 350.752 385.271C356.815 381.757 357.471 382.091 362.387 387.279C373.204 398.322 384.02 409.534 394.837 420.578C399.098 424.928 403.359 429.446 407.62 433.797C416.142 442.498 424.664 451.199 433.186 459.901C441.545 468.435 449.903 477.136 458.261 485.837C461.539 489.184 464.816 492.698 467.111 495.04C464.325 503.407 461.047 510.1 460.064 517.295C457.442 534.698 457.278 551.933 464.489 568.499C465.964 572.013 465.144 574.69 462.194 577.535C452.853 586.571 443.839 596.109 434.661 605.312C424.664 615.185 414.503 624.89 404.67 634.763C389.265 650.157 374.187 665.719 358.946 681.114C355.34 684.795 352.227 685.129 347.965 683.121C338.46 678.436 328.463 676.428 317.974 675.759C310.272 675.257 302.569 675.592 295.03 678.102C290.605 679.608 285.689 679.942 281.428 681.95C267.333 688.643 255.206 697.679 245.864 710.564C238.817 720.269 233.245 730.978 231.278 742.524C228.328 759.927 228.328 777.162 235.539 794.23C241.767 808.955 250.453 821.338 262.745 830.541C276.183 840.748 291.261 847.776 308.633 847.609C310.108 847.609 311.419 847.609 312.894 847.609C320.924 847.609 328.791 847.609 336.821 844.764C349.44 840.246 360.912 834.892 370.91 825.521C379.596 817.322 386.315 807.784 391.395 797.242C396.476 786.7 398.279 775.489 399.098 763.775C399.59 755.074 397.623 746.708 395.82 738.341C394.509 731.815 391.068 725.958 388.282 719.265C424.173 682.954 460.719 646.141 497.102 609.495C499.724 610.499 501.363 610.834 502.838 611.503C513.491 617.193 524.635 621.376 536.763 621.711C545.448 621.711 554.298 621.376 562.657 619.703C569.212 618.364 575.44 614.515 581.831 611.838C584.945 610.499 587.731 610.332 590.353 613.511C593.139 616.858 596.417 619.703 599.367 622.715C630.506 654.842 661.644 686.803 692.618 718.763C693.766 719.935 694.749 721.608 695.405 722.444C693.438 727.632 691.799 732.15 690.16 736.668C686.063 748.883 686.718 761.433 687.374 773.983C687.866 782.851 690.652 791.218 694.585 799.083C700.813 811.632 709.171 822.342 720.315 831.043C730.804 839.41 742.932 844.764 755.387 846.939C768.334 849.115 781.773 849.115 795.211 844.764C816.189 837.904 832.577 825.521 843.886 806.613C852.08 792.891 856.669 777.999 856.505 761.433C856.341 750.389 854.046 740.014 850.113 729.807C846.672 720.771 842.247 712.237 835.691 705.377C825.039 694.333 813.403 684.293 797.833 680.444C790.459 678.604 783.248 675.926 775.381 675.926C768.498 675.926 761.942 676.596 755.059 677.767C747.356 679.273 740.145 681.615 733.426 685.129C729.165 687.305 727.198 686.133 724.74 683.623C713.924 672.412 703.107 661.034 692.291 649.822C675.083 632.085 657.711 614.515 640.503 596.778C633.947 590.085 627.883 583.224 621.164 576.866C619.525 575.36 618.706 573.686 619.525 572.18C622.803 566.156 623.95 559.798 625.425 553.272C629.85 534.531 626.9 516.626 619.525 498.722C621.492 496.379 623.622 493.702 626.081 491.359C634.767 482.658 643.616 474.291 652.139 465.757C660.988 456.889 669.674 447.685 678.524 438.649C686.555 430.45 694.749 422.586 702.779 414.386C711.138 405.852 719.332 397.318 727.526 388.784C731.787 384.434 731.787 384.434 737.359 386.776C743.095 388.952 748.668 392.298 754.568 392.8C768.498 393.804 782.428 395.143 796.359 390.29C816.844 383.095 832.577 371.047 843.886 352.473C849.785 342.601 853.883 331.892 855.521 320.513C858.308 302.107 854.702 284.537 846.508 268.138C838.805 252.744 826.677 241.365 812.092 232.496C801.767 226.305 790.295 224.13 778.987 221.954C776.364 221.452 773.578 221.285 770.956 221.285C763.09 221.285 755.387 223.126 748.012 225.134" fill="white"/>
</mask>
<g mask="url(#mask2_341_1641)">
<path d="M228.704 207.159L215.27 848.898L858.051 862.824L871.486 221.085L228.704 207.159Z" fill="white"/>
</g>
<mask id="mask3_341_1641" style="mask-type:luminance" maskUnits="userSpaceOnUse" x="685" y="220" width="392" height="628">
<path d="M970.464 224.783C962.169 226.791 954.512 230.973 947.175 236.326C938.88 242.349 931.542 249.208 925.959 257.573C916.07 272.462 910.168 289.358 910.806 308.095C910.806 313.95 910.806 319.806 911.922 325.494C913.517 332.353 916.389 338.71 918.941 345.234C920.217 348.58 920.855 351.424 917.824 353.934C916.548 354.937 915.91 356.443 914.793 357.614C901.235 371.499 887.517 385.217 874.117 399.103C864.866 408.638 855.773 418.509 846.522 428.212C835.834 439.253 824.987 449.96 814.619 461.168C812.386 463.511 811.11 463.176 809.195 461.838C806.643 460.165 804.091 458.157 801.379 456.986C793.404 453.306 784.949 451.298 776.336 450.294C756.875 448.12 739.009 452.469 722.579 463.511C710.616 471.541 701.524 482.582 694.665 495.129C687.008 509.349 684.615 525.242 685.891 541.469C686.21 546.153 686.051 551.005 687.167 555.354C689.72 565.225 693.229 574.593 699.131 583.292C705.193 592.326 712.052 599.854 720.346 606.212C727.205 611.565 735.022 614.409 742.997 617.588C754.163 621.937 765.329 622.439 776.974 621.435C787.98 620.431 797.551 615.747 808.238 611.063C844.448 649.206 880.817 687.683 917.346 726.161C912.56 735.027 910.168 744.228 909.37 753.597C908.413 766.144 909.529 778.189 914.155 790.234C918.781 802.446 925.002 813.153 933.616 822.856C945.261 835.738 960.095 841.426 975.249 847.114C988.17 847.114 1000.93 848.954 1014.01 844.772C1036.98 837.578 1053.73 823.023 1065.06 801.443C1070.96 790.401 1073.35 778.189 1073.67 765.475C1073.99 747.909 1071.44 731.18 1061.55 716.29C1055.8 707.758 1049.9 699.896 1042.09 693.204C1029.64 682.832 1015.29 677.646 999.974 675.638C985.139 673.798 970.623 676.809 957.065 683.334C953.555 685.007 950.046 686.847 946.537 688.687C922.45 663.091 898.683 637.83 874.755 612.569C864.866 602.029 854.976 591.657 844.926 581.285C840.62 576.935 840.62 575.931 843.172 569.909C847.16 560.373 850.19 550.67 850.509 539.964C850.988 525.911 849.074 512.36 842.215 499.311C853.381 487.768 864.068 476.727 874.915 465.685C889.271 450.964 903.468 436.242 917.824 421.353C928.831 410.144 939.678 398.768 950.524 387.559C953.236 384.715 955.31 383.879 959.138 385.887C964.402 388.73 970.145 391.742 975.728 392.244C989.605 393.415 1003.32 394.753 1017.2 389.902C1038.1 382.875 1053.73 369.659 1065.06 350.253C1071.75 338.877 1074.79 326.163 1075.74 312.779C1076.54 302.909 1075.58 293.206 1072.87 283.838C1070.8 276.477 1068.41 268.614 1064.1 262.424C1057.08 251.717 1048.94 242.014 1038.1 234.821C1032.67 231.308 1027.25 228.296 1021.35 226.289C1016.72 224.616 1011.78 224.449 1007.31 222.776C1002.69 221.103 998.219 220.434 993.753 220.434C985.936 220.434 978.28 222.441 970.783 224.281" fill="white"/>
</mask>
<g mask="url(#mask3_341_1641)">
<path d="M684.703 212.194L671.688 848.766L1075.96 857.733L1088.98 221.162L684.703 212.194Z" fill="white"/>
</g>
<mask id="mask4_341_1641" style="mask-type:luminance" maskUnits="userSpaceOnUse" x="229" y="0" width="628" height="391">
<path d="M745.431 3.61632C728.375 9.20517 714.27 19.3966 703.446 34.0263C698.198 41.0945 693.77 48.6559 690.982 56.8748C687.374 67.5594 687.046 78.7371 687.374 90.0792C687.702 100.599 689.834 110.626 694.754 120.16C695.902 122.297 695.574 123.612 693.606 125.42C686.718 131.996 679.993 138.735 673.269 145.475C665.069 153.529 657.033 161.912 648.833 169.967C640.797 177.857 632.76 185.418 624.724 193.309C613.244 204.815 601.764 216.321 590.119 227.664C587.987 229.636 586.019 232.431 582.083 230.294C569.619 223.39 556.17 220.431 541.902 220.431C536.818 220.431 531.57 222.239 526.486 222.568C518.122 223.225 510.905 226.677 503.525 229.965C498.769 232.102 497.949 232.431 494.013 228.65C480.237 215.006 466.296 201.363 452.684 187.555C443.172 177.857 433.988 167.994 424.639 158.46C413.979 147.611 403.319 136.763 392.495 126.078C390.363 124.105 390.363 121.969 391.347 119.996C394.627 113.421 395.939 106.353 397.579 99.2843C400.859 85.4766 398.727 72.162 395.119 58.8473C393.479 53.0941 391.019 47.5052 387.41 42.7383C382.818 36.4919 379.046 29.0949 373.47 23.9992C361.826 13.3146 348.706 5.09572 332.633 1.97253C311.149 -2.13692 291.14 9.79769e-07 272.116 11.3421C261.948 17.4241 252.599 24.4923 246.039 34.355C241.283 41.5876 236.855 49.149 233.739 57.2036C231.279 63.6143 230.623 71.0113 229.967 77.9152C228.819 91.3942 229.967 104.544 236.035 117.037C240.955 127.229 246.531 136.598 254.567 144.981C264.244 154.844 276.052 160.762 288.516 165.529C301.636 170.46 315.413 170.131 329.189 168.323C333.289 167.666 337.389 166.844 341.161 165.364C346.409 163.392 351.33 160.597 357.07 157.803C361.662 162.57 365.762 167.008 370.19 171.282C378.39 179.665 386.918 187.884 395.119 196.267C408.731 209.911 422.179 223.883 435.628 237.526C444.484 246.403 453.504 254.95 462.36 263.827C465.804 267.279 466.296 269.744 464.656 274.018C457.276 292.264 457.112 310.674 462.032 329.578C467.444 350.29 479.909 365.412 497.293 377.248C505.821 383.001 515.662 387.439 525.338 388.918C539.278 390.891 553.71 391.713 567.815 386.617C582.411 381.357 595.367 374.124 605.536 362.454C608.488 359.166 611.276 355.878 613.736 352.098C619.804 343.221 623.084 333.359 625.544 322.838C629.48 305.414 627.02 288.977 620.788 272.703C618.492 266.786 618.164 266.95 622.428 262.676C628.66 256.43 635.056 250.183 641.289 243.937C649.981 235.554 658.837 227.006 667.529 218.623C675.893 210.404 684.094 201.856 692.458 193.637C696.23 189.857 700.33 186.569 704.102 182.788C711.154 175.556 718.042 168.159 725.095 160.926C726.735 159.282 728.703 158.132 731.491 159.611C736.247 162.077 741.167 164.542 746.251 166.022C766.751 171.775 786.924 171.118 806.276 162.241C822.513 154.844 835.961 143.666 844.653 127.886C852.198 114.078 857.774 99.4487 856.462 83.3397C855.97 77.7508 854.986 72.162 854.166 66.4087C852.854 56.546 848.261 47.9984 843.341 39.9439C832.517 22.3554 816.773 10.5202 797.256 4.10945C788.728 1.31502 780.2 0 771.508 0C762.815 0 753.959 1.4794 745.267 4.27383" fill="white"/>
</mask>
<g mask="url(#mask4_341_1641)">
<path d="M229.16 -15.821L220.492 390.922L857.668 404.482L866.336 -2.26071L229.16 -15.821Z" fill="white"/>
</g>
</svg>
